TITLE ""
FILE "Disc3Track05.mp3" MP3
  TRACK 01 AUDIO
    TITLE "Disc3Track05_01"
    INDEX 01 00:00:00
  TRACK 02 AUDIO
    TITLE "Disc3Track05_02"
    INDEX 01 00:01:22
  TRACK 03 AUDIO
    TITLE "Disc3Track05_03"
    INDEX 01 00:03:67
  TRACK 04 AUDIO
    TITLE "Disc3Track05_04"
    INDEX 01 00:05:23
  TRACK 05 AUDIO
    TITLE "Disc3Track05_05"
    INDEX 01 00:08:69
  TRACK 06 AUDIO
    TITLE "Disc3Track05_06"
    INDEX 01 00:09:25
  TRACK 07 AUDIO
    TITLE "Disc3Track05_07"
    INDEX 01 00:10:69
  TRACK 08 AUDIO
    TITLE "Disc3Track05_08"
    INDEX 01 00:13:48
  TRACK 09 AUDIO
    TITLE "Disc3Track05_09"
    INDEX 01 00:15:16
  TRACK 10 AUDIO
    TITLE "Disc3Track05_10"
    INDEX 01 00:20:29
  TRACK 11 AUDIO
    TITLE "Disc3Track05_11"
    INDEX 01 00:20:62
  TRACK 12 AUDIO
    TITLE "Disc3Track05_12"
    INDEX 01 00:22:22
  TRACK 13 AUDIO
    TITLE "Disc3Track05_13"
    INDEX 01 00:23:27
  TRACK 14 AUDIO
    TITLE "Disc3Track05_14"
    INDEX 01 00:24:58
  TRACK 15 AUDIO
    TITLE "Disc3Track05_15"
    INDEX 01 00:28:63
  TRACK 16 AUDIO
    TITLE "Disc3Track05_16"
    INDEX 01 00:29:18
  TRACK 17 AUDIO
    TITLE "Disc3Track05_17"
    INDEX 01 00:30:54
  TRACK 18 AUDIO
    TITLE "Disc3Track05_18"
    INDEX 01 00:33:25
  TRACK 19 AUDIO
    TITLE "Disc3Track05_19"
    INDEX 01 00:34:62
  TRACK 20 AUDIO
    TITLE "Disc3Track05_20"
    INDEX 01 00:38:11
  TRACK 21 AUDIO
    TITLE "Disc3Track05_21"
    INDEX 01 00:38:44
  TRACK 22 AUDIO
    TITLE "Disc3Track05_22"
    INDEX 01 00:40:02
  TRACK 23 AUDIO
    TITLE "Disc3Track05_23"
    INDEX 01 00:42:01
  TRACK 24 AUDIO
    TITLE "Disc3Track05_24"
    INDEX 01 00:43:32
  TRACK 25 AUDIO
    TITLE "Disc3Track05_25"
    INDEX 01 00:47:53
  TRACK 26 AUDIO
    TITLE "Disc3Track05_26"
    INDEX 01 00:48:09
  TRACK 27 AUDIO
    TITLE "Disc3Track05_27"
    INDEX 01 00:49:50
  TRACK 28 AUDIO
    TITLE "Disc3Track05_28"
    INDEX 01 00:50:57
  TRACK 29 AUDIO
    TITLE "Disc3Track05_29"
    INDEX 01 00:52:21
  TRACK 30 AUDIO
    TITLE "Disc3Track05_30"
    INDEX 01 00:56:34
  TRACK 31 AUDIO
    TITLE "Disc3Track05_31"
    INDEX 01 00:56:68
  TRACK 32 AUDIO
    TITLE "Disc3Track05_32"
    INDEX 01 00:58:21
  TRACK 33 AUDIO
    TITLE "Disc3Track05_33"
    INDEX 01 01:00:44
  TRACK 34 AUDIO
    TITLE "Disc3Track05_34"
    INDEX 01 01:01:73
  TRACK 35 AUDIO
    TITLE "Disc3Track05_35"
    INDEX 01 01:05:47
  TRACK 36 AUDIO
    TITLE "Disc3Track05_36"
    INDEX 01 01:06:03
  TRACK 37 AUDIO
    TITLE "Disc3Track05_37"
    INDEX 01 01:07:42
  TRACK 38 AUDIO
    TITLE "Disc3Track05_38"
    INDEX 01 01:09:62
  TRACK 39 AUDIO
    TITLE "Disc3Track05_39"
    INDEX 01 01:11:24
  TRACK 40 AUDIO
    TITLE "Disc3Track05_40"
    INDEX 01 01:13:15
